<svg width="48" height="34" viewBox="0 0 48 34" fill="none" xmlns="http://www.w3.org/2000/svg">
<rect width="48" height="34" rx="4" fill="#0060AF"/>
<path fill-rule="evenodd" clip-rule="evenodd" d="M9.87243 20.2588C9.87243 19.8024 9.87773 18.5828 9.86569 18.4325C9.87618 16.6176 8.46457 15.3373 7.57277 15.4371C6.95568 15.4872 6.43841 15.7224 6.16083 16.3991C5.90335 17.0297 6.13356 17.8685 6.98925 18.0653C7.90412 18.2767 8.43851 18.4526 8.82517 18.7007C9.29895 19.0045 9.68572 19.5849 9.69599 20.2595" fill="white"/>
<path fill-rule="evenodd" clip-rule="evenodd" d="M9.48998 20.2594C9.49296 19.6745 9.14372 19.1573 8.68728 18.8793C8.2824 18.6337 7.73885 18.4724 6.86196 18.2644C6.5909 18.1996 6.30736 18.0556 6.21958 17.8721C5.98739 18.0908 5.94521 18.5825 5.98606 18.8699C6.03354 19.2024 6.44924 19.7505 7.07516 19.7719C7.45741 19.7863 7.94068 19.695 8.17243 19.649C8.57223 19.5683 9.20478 19.8024 9.30548 20.2587" fill="white"/>
<path fill-rule="evenodd" clip-rule="evenodd" d="M10.1958 12.6084C9.13439 12.6084 8.21775 13.2627 8.22096 14.3948C8.22427 15.3469 9.0433 15.8566 9.33567 16.2206C9.77732 16.7692 10.0164 17.4185 10.0411 18.412C10.0605 19.2028 10.0595 19.9836 10.0638 20.2603H10.298C10.294 19.9708 10.2834 19.1419 10.2955 18.3876C10.3114 17.3937 10.559 16.7692 11.0009 16.2206C11.2958 15.8566 12.1141 15.3469 12.1158 14.3948C12.1199 13.2627 11.2036 12.6084 10.1433 12.6084" fill="white"/>
<path fill-rule="evenodd" clip-rule="evenodd" d="M10.465 20.2588C10.465 19.8024 10.4595 18.5828 10.4713 18.4325C10.4609 16.6176 11.8717 15.3373 12.7642 15.4371C13.3813 15.4872 13.898 15.7224 14.1764 16.3991C14.4336 17.0297 14.2021 17.8685 13.3475 18.0653C12.432 18.2767 11.8984 18.4526 11.5107 18.7007C11.0375 19.0045 10.6778 19.5849 10.6668 20.2595" fill="white"/>
<path fill-rule="evenodd" clip-rule="evenodd" d="M10.8472 20.2594C10.8439 19.6745 11.193 19.1573 11.6481 18.8793C12.0548 18.6337 12.5989 18.4724 13.475 18.2644C13.7466 18.1996 14.0298 18.0556 14.116 17.8721C14.3493 18.0908 14.3915 18.5825 14.3506 18.8699C14.3022 19.2024 13.8875 19.7505 13.2627 19.7719C12.8806 19.7863 12.3947 19.695 12.164 19.649C11.7657 19.5683 11.1314 19.8024 11.0303 20.2587" fill="white"/>
<path fill-rule="evenodd" clip-rule="evenodd" d="M11.1745 22.1479L11.0388 21.2215L11.3666 21.1751C11.4463 21.165 11.5435 21.178 11.5824 21.2246C11.6253 21.2735 11.6385 21.3138 11.6467 21.3778C11.6592 21.4571 11.6347 21.5485 11.5393 21.5941V21.5969C11.6458 21.5969 11.7101 21.6685 11.7289 21.7892C11.7315 21.8148 11.7397 21.8763 11.7315 21.9277C11.7099 22.05 11.6319 22.0895 11.5001 22.1067L11.1745 22.1479ZM11.3855 21.9821C11.4244 21.9769 11.4638 21.9749 11.4946 21.9565C11.5419 21.9277 11.5375 21.8662 11.5309 21.8204C11.5146 21.72 11.4865 21.6817 11.3725 21.6975L11.3007 21.7078L11.3462 21.9872L11.3855 21.9821ZM11.3169 21.554C11.3603 21.5475 11.4191 21.5425 11.4436 21.504C11.4565 21.4783 11.4728 21.4579 11.462 21.4007C11.4487 21.333 11.4247 21.2909 11.3325 21.3072L11.2467 21.3201L11.2806 21.5575L11.3169 21.554Z" fill="white"/>
<path fill-rule="evenodd" clip-rule="evenodd" d="M12.5946 21.5899C12.5972 21.6072 12.6002 21.6264 12.6013 21.6436C12.6278 21.8125 12.5946 21.9524 12.3915 21.9909C12.091 22.0449 12.0335 21.8706 11.9807 21.6264L11.9526 21.4941C11.9112 21.2606 11.8934 21.0837 12.1862 21.0291C12.3513 21.001 12.4604 21.0624 12.5058 21.216C12.5128 21.2389 12.5217 21.2615 12.525 21.2846L12.3453 21.3193C12.3246 21.2615 12.2971 21.1584 12.2163 21.1671C12.0712 21.1835 12.1191 21.3521 12.134 21.4227L12.188 21.6763C12.2042 21.753 12.2365 21.8755 12.362 21.8519C12.4639 21.8328 12.4194 21.6844 12.4104 21.6235" fill="white"/>
<path fill-rule="evenodd" clip-rule="evenodd" d="M12.8829 21.8703L12.8208 20.9116L13.0621 20.8428L13.5681 21.6765L13.378 21.7297L13.2581 21.5178L13.0471 21.577L13.0744 21.8179L12.8829 21.8703ZM13.0295 21.4222L13.182 21.3809L12.9795 20.9931L13.0295 21.4222Z" fill="white"/>
<path fill-rule="evenodd" clip-rule="evenodd" d="M6.92154 21.1459C6.99706 20.9199 7.06463 20.7534 7.35292 20.8273C7.50716 20.8677 7.60278 20.9312 7.59825 21.0987C7.59748 21.1359 7.58434 21.174 7.57573 21.2108L7.39631 21.1645C7.41983 21.0719 7.43473 20.9986 7.31284 20.9635C7.17195 20.9273 7.13762 21.0871 7.11818 21.1561L7.0452 21.4073C7.02201 21.4819 6.99419 21.6053 7.11818 21.6372C7.22065 21.6629 7.2827 21.5689 7.31979 21.4317L7.19437 21.4005L7.23776 21.2552L7.53289 21.3438L7.39278 21.8282L7.25697 21.7937L7.28755 21.6913H7.28369C7.22109 21.7751 7.1449 21.7839 7.0781 21.7718C6.78297 21.6973 6.81378 21.517 6.88422 21.2761" fill="white"/>
<path fill-rule="evenodd" clip-rule="evenodd" d="M8.02003 21.5547L7.93114 21.9488L7.73108 21.9084L7.94428 20.9883L8.28535 21.0602C8.48497 21.1006 8.54525 21.1836 8.51699 21.3547C8.50087 21.4528 8.44909 21.5585 8.32266 21.55L8.32134 21.5484C8.42822 21.5833 8.43727 21.6338 8.41861 21.7208C8.41055 21.758 8.35502 21.9828 8.39333 22.0191L8.39465 22.0467L8.18763 21.9962C8.17902 21.9339 8.20839 21.8218 8.21998 21.7597C8.23158 21.7048 8.25023 21.6274 8.19061 21.5984C8.14402 21.5751 8.12657 21.5762 8.0738 21.5649L8.02003 21.5547ZM8.05414 21.4122L8.18885 21.4461C8.27066 21.4573 8.31615 21.4177 8.33227 21.3252C8.34684 21.2404 8.32796 21.2074 8.25454 21.191L8.11012 21.1635L8.05414 21.4122Z" fill="white"/>
<path fill-rule="evenodd" clip-rule="evenodd" d="M9.30334 21.1941L9.5012 21.2156L9.41596 21.8625C9.37456 22.0676 9.28976 22.1572 9.0484 22.1292C8.80284 22.1001 8.74455 21.9956 8.75934 21.7889L8.84524 21.1426L9.04465 21.1638L8.95908 21.7957C8.94991 21.8644 8.93302 21.966 9.06353 21.9784C9.17935 21.9867 9.20563 21.9148 9.21876 21.8257" fill="white"/>
<path fill-rule="evenodd" clip-rule="evenodd" d="M9.71924 22.1643L9.77886 21.2393L10.1589 21.2546C10.3386 21.263 10.3856 21.4001 10.3801 21.5309C10.3748 21.6105 10.3483 21.6994 10.2741 21.7476C10.2132 21.7886 10.1349 21.7983 10.0625 21.795L9.93863 21.7886L9.91389 22.1762L9.71924 22.1643ZM9.94415 21.6475L10.0448 21.6527C10.1267 21.6555 10.1809 21.6253 10.1879 21.513C10.192 21.4052 10.1483 21.3869 10.0423 21.3825L9.96259 21.3799L9.94415 21.6475Z" fill="white"/>
<path fill-rule="evenodd" clip-rule="evenodd" d="M36.5308 13.5022L35.0199 16.0658C34.4496 15.6329 33.7533 15.3143 32.8649 15.3143C30.7623 15.3143 29.9082 16.7794 29.9082 17.8114C29.9082 18.5776 30.4448 19.7078 32.3156 19.7078C33.1009 19.7078 34.2172 19.1972 34.5385 18.9647L33.0443 21.9389C32.332 22.0718 32.0979 22.1541 31.4951 22.1716C28.1465 22.265 26.7936 20.342 26.7944 18.3772C26.7968 15.7796 29.2671 12.6207 33.3626 12.6207C33.6135 12.6207 33.9204 12.7019 34.1828 12.7918L34.4482 12.4746" fill="white"/>
<path fill-rule="evenodd" clip-rule="evenodd" d="M42.7649 12.5547L43.1927 21.8719H40.0087L40.0069 20.2741H37.8357L37.1212 21.8719H33.668L37.2782 15.2186L36.4641 15.2137L38.0108 12.5547H42.7649ZM39.9862 15.4051L38.7587 18.1152H40.0233L39.9862 15.4051Z" fill="white"/>
<path fill-rule="evenodd" clip-rule="evenodd" d="M24.7843 12.5554C26.3611 12.5637 27.2521 13.3638 27.2521 14.5195C27.2521 15.5851 26.3124 16.5281 25.2808 17.0158C26.3429 17.3809 26.4347 18.2768 26.4347 18.9105C26.4347 20.4419 24.7911 21.8727 22.6546 21.8727H17.9949L19.8125 15.3121L19.0659 15.308L20.5921 12.5554C20.5921 12.5554 23.5021 12.5472 24.7843 12.5554ZM23.2373 16.3331C23.5635 16.3331 24.1394 16.2559 24.2834 15.6658C24.4411 15.0251 23.9007 15.0079 23.6414 15.0079L22.7151 15.0042L22.392 16.3331H23.2373ZM21.9276 17.9795L21.5011 19.5108H22.592C23.021 19.5108 23.6059 19.3116 23.7492 18.8133C23.8907 18.3136 23.4819 17.9795 23.0544 17.9795H21.9276Z" fill="white"/>
<path fill-rule="evenodd" clip-rule="evenodd" d="M10.2377 23.0172C8.62424 23.0172 6.9663 22.6457 5.31046 21.911L5.26983 21.8924L5.25039 21.8537C4.50732 20.3874 4.11426 18.7838 4.11426 17.2147C4.11426 15.6479 4.4912 14.1128 5.23471 12.6485L5.25525 12.6096L5.29666 12.5902C6.8284 11.9119 8.47607 11.5684 10.1957 11.5684C11.7975 11.5684 13.5083 11.9508 15.1422 12.6764L15.184 12.6938L15.2034 12.7334C15.9607 14.2267 16.36 15.8301 16.36 17.3732C16.36 18.9102 15.9766 20.4467 15.2184 21.9391L15.1985 21.9782L15.1563 21.9964C13.6479 22.6639 11.947 23.0172 10.2377 23.0172ZM5.46371 21.71C7.07219 22.4174 8.67658 22.7745 10.2377 22.7745C11.893 22.7745 13.5391 22.4363 15.0046 21.7951C15.7325 20.349 16.1015 18.8607 16.1015 17.3732C16.1015 15.8796 15.7164 14.3261 14.9879 12.8767C13.4023 12.1799 11.7464 11.8104 10.1957 11.8104C8.53094 11.8104 6.93516 12.1405 5.4498 12.7918C4.73676 14.211 4.37384 15.6982 4.37384 17.2147C4.37384 18.7339 4.75089 20.2881 5.46371 21.71Z" fill="white"/>
</svg>
