<svg width="45" height="42" viewBox="0 0 45 42" fill="none" xmlns="http://www.w3.org/2000/svg">
<g clip-path="url(#clip0_146_4130)">
<path d="M19.84 8.13632L24.2118 5.79297V12.4882H19.1558L19.84 8.13632Z" fill="#2E2E41"/>
<path d="M25.1491 9.62921L25.5526 12.9162L22.6447 18.582L20.8398 13.3086L21.6884 9.52002L25.1491 9.62921Z" fill="#FDB4B4"/>
<path d="M25.7029 13.1123H20.6821V19.0479H25.7029V13.1123Z" fill="#6C63FF"/>
<path d="M33.2496 48.604L33.1728 48.6038L12.6426 48.5382L12.661 48.4671L17.9393 28.0053L16.6171 17.6789C16.3666 15.7222 17.4371 13.8727 19.281 13.0768L19.9467 12.7895L21.2113 11.8896L22.8291 17.483L25.4198 11.8853L26.5611 13.0018L29.1349 13.6699C30.7392 14.0864 31.7785 15.6136 31.5525 17.2223L31.5497 17.2335L27.6192 28.2073L33.2496 48.604Z" fill="#E8E9EA"/>
<path d="M31.0985 37.6535C31.0184 38.999 30.244 40.0493 29.3689 39.9993C28.4937 39.9493 27.8494 38.8182 27.9296 37.4722C27.9541 36.9341 28.11 36.4095 28.3841 35.9425L28.7968 30.2456L31.5249 30.4921L30.8285 36.082C31.0455 36.5772 31.138 37.1161 31.0985 37.6535Z" fill="#FDB4B4"/>
<path d="M17.0786 37.1421C16.9693 38.4857 16.1722 39.5196 15.2984 39.4514C14.4245 39.3832 13.8049 38.2389 13.9144 36.8949C13.9506 36.3574 14.1178 35.8362 14.4021 35.375L14.9386 29.688L17.6608 29.9912L16.8429 35.5654C17.049 36.065 17.1298 36.6057 17.0786 37.1421Z" fill="#FDB4B4"/>
<path d="M31.5378 35.4139L27.5757 35.1665L27.5805 35.1084L28.3719 25.4143L27.1076 16.2986C27.0288 15.7308 27.1877 15.1723 27.5551 14.726C27.9224 14.2797 28.4462 14.0088 29.03 13.963C30.1479 13.8768 31.139 14.6581 31.2891 15.7443L32.9692 27.8994L32.9675 27.9085L31.5378 35.4139Z" fill="#E8E9EA"/>
<path d="M17.7384 35.0429L13.77 34.8082L13.7787 34.7469L16.5152 15.3274C16.803 14.2609 17.887 13.6048 18.9837 13.8268C19.5573 13.9428 20.0427 14.2751 20.3508 14.7624C20.6589 15.2498 20.7459 15.8232 20.5959 16.3771L17.7384 35.0429Z" fill="#E8E9EA"/>
<path d="M22.745 19.1951C22.9388 19.1951 23.0959 19.0413 23.0959 18.8517C23.0959 18.662 22.9388 18.5083 22.745 18.5083C22.5512 18.5083 22.394 18.662 22.394 18.8517C22.394 19.0413 22.5512 19.1951 22.745 19.1951Z" fill="#D6D7D8"/>
<path d="M22.745 21.7952C22.9388 21.7952 23.0959 21.6414 23.0959 21.4518C23.0959 21.2621 22.9388 21.1084 22.745 21.1084C22.5512 21.1084 22.394 21.2621 22.394 21.4518C22.394 21.6414 22.5512 21.7952 22.745 21.7952Z" fill="#D6D7D8"/>
<path d="M22.745 24.3948C22.9388 24.3948 23.0959 24.241 23.0959 24.0514C23.0959 23.8617 22.9388 23.708 22.745 23.708C22.5512 23.708 22.394 23.8617 22.394 24.0514C22.394 24.241 22.5512 24.3948 22.745 24.3948Z" fill="#D6D7D8"/>
<path d="M22.745 26.9949C22.9388 26.9949 23.0959 26.8411 23.0959 26.6515C23.0959 26.4618 22.9388 26.3081 22.745 26.3081C22.5512 26.3081 22.394 26.4618 22.394 26.6515C22.394 26.8411 22.5512 26.9949 22.745 26.9949Z" fill="#D6D7D8"/>
<path d="M22.745 29.595C22.9388 29.595 23.0959 29.4412 23.0959 29.2516C23.0959 29.0619 22.9388 28.9082 22.745 28.9082C22.5512 28.9082 22.394 29.0619 22.394 29.2516C22.394 29.4412 22.5512 29.595 22.745 29.595Z" fill="#D6D7D8"/>
<path d="M22.745 32.1946C22.9388 32.1946 23.0959 32.0408 23.0959 31.8512C23.0959 31.6616 22.9388 31.5078 22.745 31.5078C22.5512 31.5078 22.394 31.6616 22.394 31.8512C22.394 32.0408 22.5512 32.1946 22.745 32.1946Z" fill="#D6D7D8"/>
<path d="M22.745 34.7947C22.9388 34.7947 23.0959 34.6409 23.0959 34.4513C23.0959 34.2616 22.9388 34.1079 22.745 34.1079C22.5512 34.1079 22.394 34.2616 22.394 34.4513C22.394 34.6409 22.5512 34.7947 22.745 34.7947Z" fill="#D6D7D8"/>
<path d="M22.745 37.3943C22.9388 37.3943 23.0959 37.2405 23.0959 37.0509C23.0959 36.8613 22.9388 36.7075 22.745 36.7075C22.5512 36.7075 22.394 36.8613 22.394 37.0509C22.394 37.2405 22.5512 37.3943 22.745 37.3943Z" fill="#D6D7D8"/>
<path d="M23.2777 11.307C25.0906 11.307 26.5603 9.86898 26.5603 8.09514C26.5603 6.32129 25.0906 4.8833 23.2777 4.8833C21.4648 4.8833 19.9951 6.32129 19.9951 8.09514C19.9951 9.86898 21.4648 11.307 23.2777 11.307Z" fill="#FDB4B4"/>
<path d="M24.9978 4.34551C25.1551 4.65853 24.9057 5.04952 24.5755 5.18112C24.2454 5.31272 23.8724 5.2594 23.5204 5.20462C23.1683 5.14984 22.7948 5.0979 22.4657 5.23183C22.0397 5.40512 21.7997 5.83982 21.5928 6.24321C21.2066 6.99627 20.8204 7.74933 20.4341 8.50239C20.2455 8.87032 20.0525 9.2548 20.0489 9.66644C20.0422 10.422 20.6548 11.0259 20.9844 11.7092C21.3857 12.5412 21.3526 13.5609 20.8982 14.3663C20.4437 15.1717 19.5795 15.7424 18.6461 15.8534C18.4005 15.8826 18.1406 15.8794 17.9197 15.7702C17.6989 15.6611 17.5304 15.4227 17.5713 15.1839C17.6513 14.717 18.3805 14.6079 18.5144 14.1529C18.5843 13.9154 18.4605 13.6618 18.2936 13.4763C18.1267 13.2908 17.9156 13.1461 17.7564 12.9542C17.3893 12.5118 17.3648 11.8288 17.6994 11.3623C17.896 11.0882 18.2001 10.8845 18.3272 10.5735C18.4355 10.3084 18.3962 10.0104 18.3551 9.7278C18.3024 9.36462 18.2497 9.00143 18.197 8.63825C18.1355 8.21452 18.0749 7.77559 18.1965 7.36447C18.475 6.42232 19.5623 5.97984 20.1999 5.22307C20.4962 4.8714 20.6955 4.44847 20.9994 4.10314C21.5095 3.52362 22.3126 3.20392 23.0913 3.27038C23.87 3.33684 24.6044 3.78774 25.0042 4.44492" fill="#2E2E41"/>
<path d="M24.4798 4.40479C24.3195 4.4609 24.26 4.66528 24.3061 4.82569C24.3523 4.9861 24.4732 5.11356 24.5838 5.24025C25.8352 6.67319 26.1261 8.84064 25.2952 10.5411C25.0741 10.9934 24.7797 11.4191 24.6605 11.9067C24.5738 12.2614 24.5785 12.6506 24.3773 12.9577C24.1725 13.2704 23.7667 13.4799 23.7266 13.8492C23.7008 14.0862 23.8484 14.3164 24.0463 14.4554C24.2442 14.5943 24.486 14.6579 24.7238 14.7097C25.3417 14.8445 25.9736 14.918 26.6066 14.9289C26.8129 14.9325 27.0259 14.9281 27.2152 14.8476C27.4045 14.7672 27.5661 14.5927 27.5683 14.3907C27.57 14.232 27.4764 14.0856 27.4645 13.9273C27.4287 13.453 28.081 13.2007 28.2081 12.7416C28.2917 12.4398 28.1271 12.1292 27.9517 11.8678C27.7763 11.6064 27.5762 11.332 27.5805 11.0193C27.5847 10.72 27.7766 10.4564 27.8512 10.1661C27.9544 9.76454 27.8277 9.34453 27.7019 8.94919C27.595 8.61308 27.4881 8.27697 27.3812 7.94085C27.2675 7.58356 27.1539 7.22626 27.0402 6.86896C26.8418 6.24519 26.6336 5.60334 26.2042 5.10305C25.7749 4.60275 25.0634 4.27485 24.4292 4.47911" fill="#2E2E41"/>
<path d="M26.7166 16.8506L26.4916 16.7864C26.9603 15.2139 25.9496 12.2792 25.9395 12.2498L26.1612 12.1758C26.2041 12.2989 27.2059 15.2091 26.7166 16.8506Z" fill="#3F3C57"/>
<path d="M26.6044 18.6569C27.1451 18.6569 27.5834 18.2281 27.5834 17.6991C27.5834 17.1701 27.1451 16.7412 26.6044 16.7412C26.0638 16.7412 25.6255 17.1701 25.6255 17.6991C25.6255 18.2281 26.0638 18.6569 26.6044 18.6569Z" fill="#3F3C57"/>
<path d="M20.1719 21.0901H19.5782C19.5134 21.0901 19.461 21.0387 19.461 20.9754C19.461 20.9121 19.5134 20.8607 19.5782 20.8607H20.1719C20.3355 20.8607 20.4892 20.7984 20.6048 20.6851C20.7202 20.5718 20.7838 20.4213 20.7834 20.2613L20.7762 16.6832C20.7762 15.9059 20.1301 15.2737 19.3359 15.2737C18.5417 15.2737 17.8955 15.9059 17.8955 16.683L17.9027 20.0321C17.9034 20.3588 18.1756 20.6266 18.5096 20.6291L18.9171 20.6322C18.9817 20.6327 19.0338 20.6843 19.0333 20.7477C19.0329 20.8107 18.9805 20.8615 18.9162 20.8615H18.9152L18.5077 20.8585C18.0459 20.855 17.6693 20.4844 17.6683 20.0325L17.6611 16.6832C17.6611 15.7795 18.4124 15.0444 19.3359 15.0444C20.2593 15.0444 21.0106 15.7795 21.0106 16.683L21.0178 20.2608C21.0182 20.4822 20.9305 20.6904 20.7706 20.847C20.6108 21.0037 20.3981 21.0901 20.1719 21.0901Z" fill="#3F3C57"/>
<path d="M18.9163 21.1531C19.1457 21.1531 19.3316 20.9712 19.3316 20.7467C19.3316 20.5223 19.1457 20.3403 18.9163 20.3403C18.6869 20.3403 18.501 20.5223 18.501 20.7467C18.501 20.9712 18.6869 21.1531 18.9163 21.1531Z" fill="#3F3C57"/>
<path d="M19.5779 21.3816C19.8073 21.3816 19.9933 21.1997 19.9933 20.9752C19.9933 20.7508 19.8073 20.5688 19.5779 20.5688C19.3485 20.5688 19.1626 20.7508 19.1626 20.9752C19.1626 21.1997 19.3485 21.3816 19.5779 21.3816Z" fill="#3F3C57"/>
</g>
<defs>
<clipPath id="clip0_146_4130">
<rect width="81.1702" height="68.4444" fill="white" transform="translate(-33)"/>
</clipPath>
</defs>
</svg>
