<svg width="48" height="34" viewBox="0 0 48 34" fill="none" xmlns="http://www.w3.org/2000/svg">
<rect width="48" height="34" rx="4" fill="white"/>
<path fill-rule="evenodd" clip-rule="evenodd" d="M7.78423 20.1894L9.41322 22.1898H5.38014L7.78423 20.1894ZM7.27198 19.5715L4.1171 22.196L4.11581 15.7413L7.27198 19.5715ZM14.8629 13.072C14.8629 13.072 14.1703 12.7469 13.3657 12.7944C12.4459 12.8481 11.6763 13.1979 11.2339 13.6595C10.9555 13.9495 10.6478 14.3033 10.4932 14.6875C10.269 15.2433 10.2212 15.9777 10.2212 15.9777C10.2212 15.9777 9.89947 15.7069 9.4964 14.9179C9.02774 14.0002 8.89954 13.4442 8.83603 12.81C8.7795 12.2535 8.86824 11.7031 8.86824 11.7031H14.8629V13.072ZM14.8629 14.9019V18.9718C14.8629 18.9718 14.4902 19.1137 14.1862 19.1137C13.8822 19.1137 13.3645 19.069 12.7633 18.7412C12.1664 18.4161 11.8361 18.0227 11.5799 17.6663C11.3202 17.3037 11.1057 16.8011 11.0419 16.4389C10.9907 16.1492 10.9355 15.4265 11.2339 14.8391C11.3959 14.5203 11.8305 13.974 12.6673 13.9429C13.3494 13.9169 13.7276 14.0948 14.0743 14.2834C14.734 14.6432 14.8629 14.9019 14.8629 14.9019ZM8.33542 18.686L9.41671 17.7922C9.07211 17.3556 8.98104 17.1912 8.59582 16.6276C8.20141 16.0508 7.87103 15.4162 7.58852 14.6716C7.28272 13.865 7.20885 13.4122 7.24262 12.81C7.28492 12.0439 7.46058 11.7031 7.46058 11.7031H4.11426L4.11581 13.4916C4.11581 13.4916 6.67733 16.6749 8.33542 18.686ZM11.425 22.1869H14.8629V19.7011C14.8629 19.7011 14.0102 20.089 13.4559 20.1203C13.1259 20.1394 12.8056 20.152 12.2888 20.0156C11.7143 19.8643 11.388 19.7167 10.8555 19.2812C10.4279 18.9319 9.93892 18.4161 9.93892 18.4161L8.85129 19.3153C9.35591 19.9274 9.72859 20.373 9.84268 20.4929C10.3332 21.0069 10.5411 21.1959 10.8715 21.3791C11.2017 21.5626 12.3051 21.5527 12.3051 21.5527L11.425 22.1869Z" fill="#E94E0F"/>
<path fill-rule="evenodd" clip-rule="evenodd" d="M40.8637 19.9761C40.8637 20.6964 40.9616 21.8803 40.1482 22.1685V22.2165H43.2375V22.1685C42.4247 21.8645 42.5222 20.6964 42.5222 19.9761V13.9436C42.5222 13.2237 42.4247 12.0395 43.2375 11.7355V11.6875H40.1482V11.7355C40.9775 12.0395 40.8637 13.2076 40.8637 13.9436V19.9761ZM29.5358 13.9436L35.113 20.9044C35.8282 21.8162 36.3326 22.3446 37.487 22.7284V13.7516C37.487 12.8556 37.487 12.2154 38.3327 11.7355V11.6875H35.4707V11.7355C36.3326 12.2154 36.316 12.8556 36.316 13.7516V19.8162L30.3653 12.4234L30.1373 12.1034C30.0238 11.9755 29.9588 11.8955 29.8938 11.7035V11.6875H27.5194V11.7355C28.365 12.2154 28.365 12.8556 28.365 13.7516V20.1365C28.365 21.0323 28.365 21.6723 27.5035 22.1685V22.2165H30.3816V22.1685C29.5197 21.6723 29.5358 21.0323 29.5358 20.1365V13.9436ZM20.4448 15.928V12.7917L21.534 12.6794C22.5097 12.5835 23.5501 13.1596 23.5501 14.2639C23.5501 15.576 22.0379 15.928 20.9813 15.928H20.4448ZM20.4448 20.9363V16.9838L21.5827 16.9199C23.0137 16.8398 24.542 17.5121 24.542 19.0642C24.542 20.5843 23.1928 21.1923 21.8592 21.0644L20.4448 20.9363ZM18.786 19.9602C18.786 20.6964 18.8837 21.8645 18.0704 22.1685V22.2165H20.7534C21.9729 22.2165 23.2578 22.2646 24.3957 21.7205C25.4852 21.2084 26.3471 20.1521 26.3471 18.92C26.3471 17.3521 25.1598 16.3919 23.6964 16.0876C24.6234 15.6877 25.3223 15.0797 25.3223 14.0076C25.3223 12.5835 24.0706 11.6875 21.9245 11.6875H18.0704V11.7355C18.9001 12.0395 18.786 13.2076 18.786 13.9275V19.9602Z" fill="#005B6A"/>
</svg>
