<svg width="27" height="27" viewBox="0 0 27 27" fill="none" xmlns="http://www.w3.org/2000/svg">
<path fill-rule="evenodd" clip-rule="evenodd" d="M13.3028 0C16.8586 0 20.2003 1.38246 22.7102 3.89365C27.8984 9.08189 27.8984 17.5227 22.7102 22.7109C20.1668 25.2555 16.7423 26.6021 13.2731 26.6021C11.382 26.6021 9.47848 26.2023 7.6975 25.378C7.17273 25.1676 6.68138 24.9696 6.32865 24.9696C5.9227 24.9721 5.3769 25.1602 4.84966 25.3422C3.76795 25.7134 2.42139 26.1763 1.42508 25.1837C0.432481 24.1899 0.890413 22.847 1.25923 21.7666C1.44117 21.2344 1.62805 20.6849 1.62805 20.269C1.62805 19.9274 1.46345 19.4918 1.21096 18.8643C-1.10716 13.858 -0.0353508 7.82443 3.89667 3.89489C6.40663 1.38369 9.74705 0 13.3028 0ZM13.3041 1.85648C10.2433 1.85648 7.36828 3.0471 5.20858 5.20804C1.82484 8.5893 0.904027 13.7812 2.91521 18.1291C3.20482 18.8457 3.48453 19.5438 3.48453 20.269C3.48453 20.993 3.23576 21.722 3.0167 22.3656C2.836 22.8953 2.56248 23.6948 2.73823 23.8706C2.91026 24.0488 3.71473 23.7679 4.24569 23.5859C4.88308 23.3681 5.60587 23.1181 6.32247 23.1131C7.0403 23.1131 7.7173 23.3854 8.4339 23.6738C12.8238 25.7035 18.0158 24.7803 21.3983 21.399C25.8613 16.9335 25.8613 9.66977 21.3983 5.2068C19.2374 3.04586 16.3635 1.85648 13.3041 1.85648ZM18.1889 12.5779C18.8721 12.5779 19.4266 13.1311 19.4266 13.8155C19.4266 14.5 18.8721 15.0532 18.1889 15.0532C17.5058 15.0532 16.9463 14.5 16.9463 13.8155C16.9463 13.1311 17.4946 12.5779 18.1778 12.5779H18.1889ZM13.2274 12.5779C13.9106 12.5779 14.4651 13.1311 14.4651 13.8155C14.4651 14.5 13.9106 15.0532 13.2274 15.0532C12.5443 15.0532 11.9848 14.5 11.9848 13.8155C11.9848 13.1311 12.5319 12.5779 13.2163 12.5779H13.2274ZM8.26545 12.5779C8.94864 12.5779 9.50311 13.1311 9.50311 13.8155C9.50311 14.5 8.94864 15.0532 8.26545 15.0532C7.58227 15.0532 7.02285 14.5 7.02285 13.8155C7.02285 13.1311 7.57113 12.5779 8.25432 12.5779H8.26545Z" fill="#B8B9BA"/>
</svg>
