<svg width="46" height="44" viewBox="0 0 46 44" fill="none" xmlns="http://www.w3.org/2000/svg">
<mask id="mask0_146_4365" style="mask-type:alpha" maskUnits="userSpaceOnUse" x="0" y="0" width="46" height="44">
<ellipse cx="23" cy="22" rx="22.5" ry="22" fill="#D9D9D9"/>
</mask>
<g mask="url(#mask0_146_4365)">
<path d="M24.3794 26.5842C22.1153 25.7043 19.2028 22.797 19.9301 21.4386C20.0916 21.0958 20.1876 20.7258 20.2131 20.3477C20.2599 19.8345 20.2668 19.3184 20.2337 18.804C20.1827 17.9617 20.0813 17.1232 19.9301 16.293C19.9301 16.293 26.9985 16.4525 26.5868 17.4936C26.4668 17.7989 26.4479 18.3289 26.4805 18.9224C26.5131 19.5158 26.5988 20.1865 26.688 20.7542C26.8115 21.5329 26.935 22.1264 26.935 22.1264C26.935 22.1264 26.5028 22.7319 26.2489 22.7645C25.9951 22.797 27.628 27.838 24.3794 26.5842Z" fill="#CF6F80"/>
<path d="M29.3188 13.7032C29.3202 14.3213 29.2229 14.9356 29.0307 15.523C28.601 16.8392 27.7198 17.9611 26.5429 18.6904C25.366 19.4198 23.9691 19.7096 22.5992 19.5086C21.2293 19.3077 19.9746 18.6289 19.0567 17.5923C18.1388 16.5557 17.617 15.228 17.5834 13.8438C17.5834 13.7958 17.5834 13.7512 17.5834 13.7032C17.5701 12.9241 17.712 12.1501 18.001 11.4264C18.2899 10.7027 18.7201 10.0438 19.2663 9.48814C19.8126 8.93246 20.464 8.4911 21.1827 8.18983C21.9013 7.88856 22.6727 7.7334 23.452 7.7334C24.2312 7.7334 25.0026 7.88856 25.7213 8.18983C26.4399 8.4911 27.0913 8.93246 27.6376 9.48814C28.1839 10.0438 28.614 10.7027 28.903 11.4264C29.1919 12.1501 29.3339 12.9241 29.3206 13.7032H29.3188Z" fill="#CF6F80"/>
<path d="M32.3944 37.8413L29.8062 81.3219L26.4307 81.5432L17.6899 56.3313L19.1239 26.3992L19.4257 20.0752L23.3124 23.2672L25.2317 24.84L26.7325 21.0203L29.5232 23.4524L32.3944 37.8413Z" fill="#6C63FF"/>
<path d="M27.3139 82.0493C20.2815 83.25 13.8392 79.8075 13.8392 79.8075L13.9027 78.6412C13.9027 78.6412 14.0622 65.4186 13.6179 64.4049C13.1737 63.3913 12.8307 58.2508 13.0828 57.4618C13.3349 56.6728 12.1686 44.8413 12.1686 44.8413L11.9782 40.0387L5.06934 37.2309L8.15671 30.7954C8.57281 29.8927 8.93144 28.9647 9.23044 28.0168C9.76558 26.3462 12.2595 24.7047 12.2595 24.7047C12.2595 24.7047 14.8152 23.065 15.8237 23.1267C16.8322 23.1885 18.1581 21.6756 18.1581 21.6756C19.1375 19.1834 20.2164 20.3121 20.2164 20.3121C20.2164 20.4304 20.1134 20.4836 20.1683 20.6808C20.923 23.3342 25.5266 32.0612 25.6107 32.2139L26.1784 45.8773L26.7462 63.1683L27.3139 82.0493Z" fill="white"/>
<path d="M25.609 32.224C24.8508 31.9084 20.8441 27.334 20.8441 27.334V26.2928C20.6983 25.9498 19.8321 26.159 19.1289 26.3992L19.4325 20.0752L19.7755 20.3599C20.5285 23.0116 25.5249 32.0731 25.609 32.224Z" fill="white"/>
<path d="M35.5179 54.3708C35.5179 54.3708 35.8318 54.8442 35.5179 55.0655C35.2041 55.2868 35.5471 55.8219 35.5471 55.8219C35.5471 55.8219 34.765 56.2884 35.108 56.7035C35.451 57.1186 35.2349 58.9933 35.2349 58.9933L34.2881 60.561C34.2881 60.561 34.3447 61.5713 34.3499 62.9366C34.3499 65.0669 34.2247 68.0616 33.5317 69.427L33.6261 80.629C33.6261 80.629 30.3054 81.8399 27.5336 81.4712L27.1237 63.4958C27.1237 63.4958 27.724 53.3023 27.9453 51.3469C28.0749 50.3318 28.1271 49.3083 28.1014 48.2853C28.1014 48.2853 28.007 45.2253 27.6914 43.8051C27.6914 43.8051 27.3484 37.6527 27.3124 35.9495C27.2969 35.1348 27.3415 32.7575 27.3878 30.4968C27.441 28.0252 27.501 25.6942 27.501 25.6942L26.6743 20.6738C26.6743 20.6738 27.5011 20.6738 27.6914 20.9294C27.7752 21.0093 27.8672 21.08 27.9659 21.1404C29.0465 21.871 32.8662 24.118 32.8662 24.118C32.8662 24.118 34.9776 24.9584 35.4836 26.1625C35.9896 27.3666 36.3412 28.2208 36.5882 28.5638C36.8352 28.9068 36.9656 30.5191 36.9656 30.5191C36.9656 30.5191 37.6928 33.4864 38.2606 33.989C38.8283 34.4916 39.2382 37.6818 39.2382 37.6818L34.2212 41.6268C34.2212 41.6268 33.7804 48.1892 33.6844 48.4431C33.5883 48.6969 35.5179 54.3708 35.5179 54.3708Z" fill="white"/>
<path d="M29.3192 26.7714L29.7737 28.0921L27.3896 30.4934C27.4427 28.0218 27.5028 25.6908 27.5028 25.6908L26.6743 20.6704C26.6743 20.6704 27.5028 20.6704 27.6914 20.926C27.7756 21.0054 27.8675 21.0761 27.9659 21.1369L29.995 26.9841L29.3192 26.7714Z" fill="white"/>
<path d="M25.8818 4.38436C24.9905 3.9651 23.9768 3.88581 23.0312 4.16138C22.5561 4.30203 22.1084 4.53015 21.6264 4.64507C20.5973 4.89378 19.3966 4.62449 18.5133 5.22653C18.0228 5.56957 17.7277 6.11158 17.4533 6.63815L16.7672 7.94514C16.3933 8.66038 16.016 9.38763 15.8599 10.1749C15.7038 10.9622 15.7981 11.8438 16.2973 12.4767C16.6609 12.9381 17.1977 13.228 17.5922 13.6619C17.8286 13.9259 18.0078 14.2358 18.1188 14.5723C18.2298 14.9087 18.2701 15.2645 18.2372 15.6173C18.6848 15.4457 18.7277 14.842 18.738 14.3617C18.7571 13.5121 18.904 12.6703 19.1737 11.8644C19.3302 11.3328 19.596 10.8397 19.9541 10.4168C20.1349 10.2072 20.3583 10.0386 20.6094 9.92207C20.8605 9.80555 21.1335 9.74381 21.4103 9.74096C22.0964 9.76497 22.7121 10.2384 23.3914 10.1818C23.9059 10.1389 24.3622 9.78727 24.8802 9.71866C25.3369 9.67545 25.7933 9.80453 26.1597 10.0806C26.5223 10.3557 26.84 10.6855 27.1014 11.0582C28.0379 12.2915 28.7977 13.7374 28.8423 15.2845C29.0361 15.4269 29.3157 15.2416 29.4117 15.0221C29.5078 14.8025 29.5112 14.5453 29.633 14.336C29.7737 14.0942 30.0429 13.9655 30.2539 13.7837C30.7891 13.3223 30.9228 12.5453 30.9023 11.8404C30.8817 11.1354 30.7445 10.4202 30.8782 9.72724C30.9589 9.30187 31.1407 8.90394 31.2402 8.48371C31.3396 8.06349 31.3516 7.5918 31.1167 7.22989C30.7736 6.69818 30.0515 6.59355 29.422 6.54381C28.7068 6.48206 28.067 6.56096 27.6108 5.95892C27.3966 5.64476 27.1556 5.34978 26.8904 5.07731C26.7995 4.98811 25.8818 4.4221 25.8818 4.38436Z" fill="#512E4E"/>
<path d="M5.54113 36.8638L5.06773 37.2411L4.5 42.3542C4.5 42.3542 4.8156 44.6251 4.75214 44.9733C4.68867 45.3215 6.04712 48.4432 6.04712 48.4432C6.04712 48.4432 10.5272 56.4257 12.3574 56.8374L18.5424 52.419L16.901 50.3367C16.901 50.3367 16.3332 50.1155 16.1909 50.3367C16.1909 50.3367 13.1464 45.0985 12.8308 44.7194C12.5152 44.3404 12.5786 43.584 12.5786 43.584C12.5786 43.584 12.1052 43.0797 12.263 42.6063C12.4208 42.1329 11.3471 40.4914 11.3471 40.4914L12.3248 39.5772L5.54113 36.8638Z" fill="white"/>
<path d="M38.1954 37.3369L39.2348 37.68C39.2348 37.68 39.7099 39.5101 39.7099 40.4878C39.7099 41.4654 40.372 41.5615 40.372 41.5615C40.372 41.5615 41.0976 42.4191 40.7151 43.0434C40.3326 43.6678 40.1799 45.2217 40.1799 45.2217C40.1799 45.2217 40.3051 48.1873 39.7374 48.5973C39.1697 49.0072 39.0427 49.9866 39.0427 49.9866C39.0427 49.9866 38.0016 51.8476 38.0342 52.2901C38.0668 52.7326 36.5814 55.7291 36.5814 55.7291C36.5814 55.7291 37.3087 52.0054 33.079 50.3965C33.079 50.3965 33.0481 49.1324 33.3637 48.7859C33.6793 48.4395 34.1715 48.2817 33.8628 46.5304C33.5541 44.7792 33.7736 42.6867 33.7736 42.2664C33.7736 41.8462 34.7204 39.2254 34.7204 39.2254L38.1954 37.3369Z" fill="white"/>
</g>
</svg>
