<svg width="46" height="44" viewBox="0 0 46 44" fill="none" xmlns="http://www.w3.org/2000/svg">
<mask id="mask0_146_4205" style="mask-type:alpha" maskUnits="userSpaceOnUse" x="0" y="0" width="46" height="44">
<ellipse cx="23" cy="22" rx="22.5" ry="22" fill="#D9D9D9"/>
</mask>
<g mask="url(#mask0_146_4205)">
<path d="M25.1056 13.3081L26.0876 17.789L23.9989 24.0261L20.6338 17.3249L21.1007 13.4372L25.1056 13.3081Z" fill="#FDB4B4"/>
<path d="M26.2702 17.5571H20.46V24.5774H26.2702V17.5571Z" fill="#6C63FF"/>
<path d="M23.8806 15.5654C26.0721 15.5654 27.8486 13.7889 27.8486 11.5974C27.8486 9.40593 26.0721 7.62939 23.8806 7.62939C21.6891 7.62939 19.9126 9.40593 19.9126 11.5974C19.9126 13.7889 21.6891 15.5654 23.8806 15.5654Z" fill="#FDB4B4"/>
<path d="M20.4267 14.5477C20.4267 14.5477 17.4689 9.08518 20.1357 6.4565C22.8025 3.82781 24.9432 5.55995 24.9432 5.55995L26.1657 5.51055C26.1657 5.51055 26.4206 6.47259 26.8317 5.9518C27.2428 5.431 27.9857 7.32767 27.9857 7.32767C29.3645 9.81086 24.5847 10.3671 24.5847 10.3671C24.5847 10.3671 24.9298 11.4666 24.579 11.6969C24.2282 11.9271 23.2908 12.7933 23.2908 12.7933L22.4519 13.427L21.9533 12.6673C21.9533 12.6673 21.4325 12.2562 21.1694 12.4289C20.9062 12.6016 21.2682 14.8738 21.2682 14.8738L20.4267 14.5477Z" fill="#2E2E41"/>
<path d="M14.7529 59.9042L16.7383 35.2574L13.6936 22.4232C13.4311 20.5154 14.6332 18.7102 16.4884 18.218L19.4677 17.4276L20.7863 16.1089L23.7856 22.7324L25.6588 16.1139L27.1197 17.1764L31.4526 19.088L31.4506 19.1328L30.7556 34.6363L32.307 59.6847L32.2382 59.6856L14.7529 59.9042Z" fill="#E8E9EA"/>
<path d="M12.5912 46.8148C12.5454 46.1792 12.6525 45.5418 12.9036 44.9561L12.0977 38.3447L15.2548 38.0532L15.7323 44.7911C16.0496 45.3435 16.2299 45.9639 16.2583 46.6004C16.3512 48.1923 15.6055 49.5302 14.5927 49.5893C13.58 49.6484 12.6838 48.4062 12.5912 46.8148Z" fill="#FDB4B4"/>
<path d="M32.5877 47.7852C32.5488 47.1492 32.6629 46.513 32.9203 45.9301L32.1865 39.3103L35.3466 39.0532L35.7507 45.7959C36.0619 46.3518 36.2355 46.9741 36.2569 47.6108C36.3324 49.2037 35.5722 50.5333 34.5589 50.5814C33.5455 50.6294 32.6629 49.3776 32.5877 47.7852Z" fill="#FDB4B4"/>
<path d="M12.0848 44.1634L12.0741 44.1064L10.4287 35.2781L12.3729 20.9021C12.5464 19.6187 13.6924 18.6941 14.9848 18.7974C15.6597 18.8515 16.2652 19.1716 16.69 19.6989C17.1147 20.2262 17.2985 20.8861 17.2074 21.5571L15.7442 32.3389L16.6655 43.871L12.0848 44.1634Z" fill="#E8E9EA"/>
<path d="M31.6122 43.9562L28.3041 21.8743C28.1321 21.2268 28.2328 20.5492 28.5889 19.9734C28.9451 19.3976 29.5064 19.005 30.1695 18.8678C31.438 18.6055 32.6907 19.3809 33.0218 20.6329L36.1998 43.6789L31.6122 43.9562Z" fill="#E8E9EA"/>
<path d="M23.8827 24.7512C24.107 24.7512 24.2888 24.5694 24.2888 24.3451C24.2888 24.1208 24.107 23.939 23.8827 23.939C23.6584 23.939 23.4766 24.1208 23.4766 24.3451C23.4766 24.5694 23.6584 24.7512 23.8827 24.7512Z" fill="#D6D7D8"/>
<path d="M23.8827 27.8259C24.107 27.8259 24.2888 27.6441 24.2888 27.4198C24.2888 27.1955 24.107 27.0137 23.8827 27.0137C23.6584 27.0137 23.4766 27.1955 23.4766 27.4198C23.4766 27.6441 23.6584 27.8259 23.8827 27.8259Z" fill="#D6D7D8"/>
<path d="M23.8827 30.9011C24.107 30.9011 24.2888 30.7193 24.2888 30.495C24.2888 30.2707 24.107 30.0889 23.8827 30.0889C23.6584 30.0889 23.4766 30.2707 23.4766 30.495C23.4766 30.7193 23.6584 30.9011 23.8827 30.9011Z" fill="#D6D7D8"/>
<path d="M23.8827 33.9758C24.107 33.9758 24.2888 33.794 24.2888 33.5697C24.2888 33.3454 24.107 33.1636 23.8827 33.1636C23.6584 33.1636 23.4766 33.3454 23.4766 33.5697C23.4766 33.794 23.6584 33.9758 23.8827 33.9758Z" fill="#D6D7D8"/>
<path d="M23.8827 37.051C24.107 37.051 24.2888 36.8692 24.2888 36.6449C24.2888 36.4206 24.107 36.2388 23.8827 36.2388C23.6584 36.2388 23.4766 36.4206 23.4766 36.6449C23.4766 36.8692 23.6584 37.051 23.8827 37.051Z" fill="#D6D7D8"/>
<path d="M23.8827 40.1262C24.107 40.1262 24.2888 39.9444 24.2888 39.7201C24.2888 39.4958 24.107 39.314 23.8827 39.314C23.6584 39.314 23.4766 39.4958 23.4766 39.7201C23.4766 39.9444 23.6584 40.1262 23.8827 40.1262Z" fill="#D6D7D8"/>
<path d="M23.8827 43.2009C24.107 43.2009 24.2888 43.0191 24.2888 42.7948C24.2888 42.5705 24.107 42.3887 23.8827 42.3887C23.6584 42.3887 23.4766 42.5705 23.4766 42.7948C23.4766 43.0191 23.6584 43.2009 23.8827 43.2009Z" fill="#D6D7D8"/>
<path d="M23.8833 48.6548L16.1989 47.6307L16.0509 47.6111L12.1235 38.5555L9.78467 33.1641H15.8767L23.8833 48.6548Z" fill="#6C63FF"/>
<path d="M27.6058 22.2833L27.3544 22.21C27.8782 20.4139 26.7614 17.0102 26.75 16.9766L27.0643 17.2135C27.1122 17.3541 28.1526 20.4085 27.6058 22.2833Z" fill="#309FE7"/>
<path d="M18.768 22.6024L19.0194 22.5292C18.4956 20.7331 19.6251 17.3813 19.6364 17.3477L19.3675 17.5278C19.3195 17.6684 18.2211 20.7277 18.768 22.6024Z" fill="#309FE7"/>
<path d="M27.4807 24.3462C28.0849 24.3462 28.5747 23.8564 28.5747 23.2522C28.5747 22.648 28.0849 22.1582 27.4807 22.1582C26.8765 22.1582 26.3867 22.648 26.3867 23.2522C26.3867 23.8564 26.8765 24.3462 27.4807 24.3462Z" fill="#309FE7"/>
<path d="M19.9342 29.3298H19.2708C19.1984 29.3298 19.1398 29.2712 19.1398 29.1989C19.1398 29.1266 19.1984 29.0679 19.2708 29.0679H19.9342C20.1171 29.0679 20.2889 28.9967 20.418 28.8673C20.5471 28.7379 20.6181 28.566 20.6177 28.3832L20.6096 24.2965C20.6096 23.4088 19.8876 22.6867 19 22.6867C18.1125 22.6867 17.3903 23.4088 17.3903 24.2963L17.3984 28.1214C17.3992 28.4946 17.7034 28.8005 18.0766 28.8034L18.532 28.8068C18.6042 28.8074 18.6624 28.8664 18.6619 28.9388C18.6614 29.0108 18.6028 29.0688 18.5309 29.0688H18.5299L18.0745 29.0653C17.5584 29.0613 17.1375 28.6381 17.1365 28.1219L17.1284 24.2965C17.1284 23.2644 17.968 22.4248 19 22.4248C20.0319 22.4248 20.8715 23.2644 20.8715 24.2963L20.8796 28.3827C20.8801 28.6355 20.782 28.8733 20.6033 29.0523C20.4248 29.2312 20.1871 29.3298 19.9342 29.3298Z" fill="#309FE7"/>
<path d="M18.531 29.4024C18.7874 29.4024 18.9952 29.1946 18.9952 28.9383C18.9952 28.6819 18.7874 28.4741 18.531 28.4741C18.2747 28.4741 18.0669 28.6819 18.0669 28.9383C18.0669 29.1946 18.2747 29.4024 18.531 29.4024Z" fill="#309FE7"/>
<path d="M19.2708 29.6632C19.5271 29.6632 19.7349 29.4554 19.7349 29.199C19.7349 28.9427 19.5271 28.7349 19.2708 28.7349C19.0144 28.7349 18.8066 28.9427 18.8066 29.199C18.8066 29.4554 19.0144 29.6632 19.2708 29.6632Z" fill="#309FE7"/>
</g>
</svg>
