<svg width="25" height="27" viewBox="0 0 25 27" fill="none" xmlns="http://www.w3.org/2000/svg">
<path fill-rule="evenodd" clip-rule="evenodd" d="M14.2795 17.4168C15.7468 17.4168 16.9412 18.6026 16.9412 20.0601V23.8089C16.9412 24.1221 17.1922 24.3731 17.514 24.3804H19.8368C21.6673 24.3804 23.1553 22.9107 23.1553 21.1046V10.4726C23.1468 9.85107 22.8507 9.26609 22.3425 8.87733L14.3076 2.46939C13.229 1.61508 11.7203 1.61508 10.638 2.47183L2.65799 8.87489C2.13029 9.27584 1.83415 9.86082 1.82805 10.4933V21.1046C1.82805 22.9107 3.31609 24.3804 5.14658 24.3804H7.49136C7.82163 24.3804 8.08974 24.1184 8.08974 23.7967C8.08974 23.726 8.09827 23.6553 8.1129 23.5883V20.0601C8.1129 18.6111 9.29991 17.4265 10.7563 17.4168H14.2795ZM19.8368 26.2085H17.492C16.149 26.1768 15.1131 25.1226 15.1131 23.8089V20.0601C15.1131 19.6104 14.739 19.2448 14.2795 19.2448H10.7624C10.3127 19.2473 9.94095 19.6141 9.94095 20.0601V23.7967C9.94095 23.8881 9.92876 23.9758 9.90317 24.0587C9.77155 25.2652 8.74053 26.2085 7.49136 26.2085H5.14658C2.30822 26.2085 0 23.9185 0 21.1046V10.4848C0.012187 9.27341 0.570352 8.16439 1.53435 7.43438L9.49856 1.04229C11.2523 -0.347025 13.6958 -0.347025 15.4458 1.03986L23.4673 7.43804C24.4094 8.15586 24.9675 9.26244 24.9834 10.4592V21.1046C24.9834 23.9185 22.6752 26.2085 19.8368 26.2085Z" fill="#309FE7"/>
</svg>
