<svg width="48" height="34" viewBox="0 0 48 34" fill="none" xmlns="http://www.w3.org/2000/svg">
<rect width="48" height="34" rx="4" fill="#003D79"/>
<path fill-rule="evenodd" clip-rule="evenodd" d="M3.4719 18.0065C3.4719 17.3968 3.46107 16.8851 3.42859 16.4288H4.55547L4.60831 17.2127H4.63992C4.89533 16.7985 5.36241 16.3086 6.23367 16.3086C6.91371 16.3086 7.44489 16.7013 7.6676 17.2888H7.68947C7.87039 16.995 8.08217 16.7775 8.32632 16.6246C8.61346 16.4181 8.94292 16.3086 9.36789 16.3086C10.2282 16.3086 11.0988 16.907 11.0988 18.6049V21.7279H9.82414V18.8011C9.82414 17.9198 9.52715 17.3968 8.9007 17.3968C8.45376 17.3968 8.12407 17.7238 7.98689 18.1049C7.95463 18.2351 7.9228 18.3984 7.9228 18.5497V21.7279H6.64769V18.6592C6.64769 17.9198 6.36132 17.3968 5.75565 17.3968C5.26692 17.3968 4.93799 17.7891 4.82084 18.1583C4.76736 18.2898 4.74592 18.4417 4.74592 18.5937V21.7279H3.4719V18.0065Z" fill="white"/>
<path fill-rule="evenodd" clip-rule="evenodd" d="M16.0652 20.4548C16.0652 20.9334 16.0864 21.4005 16.1396 21.7279H14.9599L14.8753 21.1404H14.843C14.5245 21.5543 13.9827 21.8476 13.3135 21.8476C12.2721 21.8476 11.6881 21.0756 11.6881 20.2699C11.6881 18.931 12.8456 18.2569 14.758 18.2677V18.1803C14.758 17.832 14.6198 17.2556 13.7063 17.2556C13.1961 17.2556 12.6647 17.419 12.3143 17.6471L12.059 16.7773C12.4422 16.5374 13.1121 16.3086 13.9294 16.3086C15.5874 16.3086 16.0652 17.3866 16.0652 18.5395V20.4548ZM14.7898 19.1383C13.8658 19.1163 12.9842 19.323 12.9842 20.1284C12.9842 20.6502 13.3135 20.8901 13.7279 20.8901C14.2478 20.8901 14.6309 20.5418 14.7474 20.161C14.779 20.0631 14.7898 19.9539 14.7898 19.8671V19.1383Z" fill="white"/>
<path fill-rule="evenodd" clip-rule="evenodd" d="M16.9686 18.0065C16.9686 17.3968 16.9569 16.8851 16.9259 16.4288H18.0723L18.1364 17.2231H18.1678C18.3911 16.8101 18.9541 16.3086 19.8145 16.3086C20.7178 16.3086 21.6526 16.907 21.6526 18.5832V21.7279H20.3461V18.7359C20.3461 17.9737 20.0699 17.3968 19.358 17.3968C18.8374 17.3968 18.4763 17.7777 18.3379 18.1805C18.2961 18.3005 18.285 18.4641 18.285 18.6154V21.7279H16.9686V18.0065Z" fill="white"/>
<path fill-rule="evenodd" clip-rule="evenodd" d="M27.3178 14.2998V20.237C27.3178 20.781 27.3387 21.3696 27.36 21.7283H26.1913L26.1391 20.8905H26.1174C25.8092 21.4784 25.1814 21.8481 24.4279 21.8481C23.1961 21.8481 22.2185 20.771 22.2185 19.1387C22.2076 17.3648 23.2912 16.309 24.534 16.309C25.2456 16.309 25.756 16.6141 25.9893 17.0062H26.0109V14.2998H27.3178ZM26.0109 18.6373C26.0109 18.5296 25.9999 18.3984 25.9795 18.29C25.8624 17.7676 25.4479 17.343 24.8529 17.343C24.0137 17.343 23.5462 18.1051 23.5462 19.0954C23.5462 20.0635 24.0137 20.771 24.8423 20.771C25.3733 20.771 25.841 20.4011 25.9683 19.8245C25.9999 19.7043 26.0109 19.5739 26.0109 19.4319V18.6373Z" fill="white"/>
<path fill-rule="evenodd" clip-rule="evenodd" d="M28.2411 21.7284H29.5597V16.4297H28.2411V21.7284Z" fill="white"/>
<path fill-rule="evenodd" clip-rule="evenodd" d="M30.4831 18.1372C30.4831 17.4193 30.472 16.9072 30.4403 16.4289H31.5773L31.6188 17.4405H31.6629C31.9174 16.6897 32.5231 16.4289 33.0753 16.4289C33.2025 16.4289 33.2768 16.4066 33.3833 16.4289V17.6044C33.2768 17.5827 33.1602 17.5609 33.0008 17.5609C32.3741 17.5609 31.9488 17.9741 31.8321 18.5722C31.8114 18.6919 31.79 18.834 31.79 18.987V21.7282H30.4831V18.1372Z" fill="white"/>
<path fill-rule="evenodd" clip-rule="evenodd" d="M33.9889 21.7284H35.3056V16.4297H33.9889V21.7284Z" fill="white"/>
<path fill-rule="evenodd" clip-rule="evenodd" d="M33.6774 10.0229C32.8865 10.492 31.021 11.5879 30.3246 11.9961C29.9002 12.2175 28.9172 12.3142 28.3612 11.5464C28.3513 11.5325 27.6218 10.5988 27.592 10.5636C27.5711 10.5388 27.0995 9.82226 26.0486 9.79986C25.8933 9.79609 25.1213 9.79187 24.3681 10.2304C23.3669 10.8163 21.0385 12.1798 21.0385 12.1798C21.0378 12.1798 21.0378 12.181 21.0366 12.181C20.0795 12.742 19.3337 13.1787 19.3337 13.1787L20.2148 14.2872C20.627 14.8114 21.5565 15.217 22.3626 14.743C22.3626 14.743 25.341 12.9763 25.352 12.9712C26.6401 12.2476 27.634 12.2476 28.2937 12.5169C28.8858 12.7732 29.401 13.4117 29.401 13.4117C29.401 13.4117 30.0742 14.2664 30.193 14.4159C30.576 14.8988 31.2101 14.7091 31.2101 14.7091C31.2101 14.7091 31.445 14.6818 31.7992 14.4664C31.7992 14.4664 34.6841 12.753 34.686 12.7524C35.6021 12.2019 36.4422 12.0991 36.8716 12.1396C38.2166 12.2648 38.6344 13.2272 39.2175 13.8986C39.561 14.2935 39.8708 14.5178 40.3447 14.5065C40.6561 14.4997 41.0079 14.3063 41.0598 14.2713L44.5145 12.2292C44.5145 12.2292 44.16 11.6823 43.434 10.8315C42.7843 10.0723 42.0942 10.4158 41.544 10.695C41.3128 10.8121 40.4752 11.3828 39.6454 11.7809C39.0542 12.0645 38.2049 11.9792 37.7394 11.3901C37.7116 11.3543 36.9586 10.4205 36.8794 10.3056C36.5755 9.91564 35.9825 9.56641 35.2226 9.56641C34.7605 9.56641 34.2361 9.6955 33.6774 10.0229Z" fill="url(#paint0_linear_81_1794)"/>
<defs>
<linearGradient id="paint0_linear_81_1794" x1="19.3337" y1="14.9529" x2="44.5145" y2="14.9529" gradientUnits="userSpaceOnUse">
<stop stop-color="#FFCA06"/>
<stop offset="0.330844" stop-color="#FBAA18"/>
<stop offset="0.694742" stop-color="#FFC907"/>
<stop offset="1" stop-color="#FAA619"/>
</linearGradient>
</defs>
</svg>
