<svg width="16" height="17" viewBox="0 0 16 17" fill="none" xmlns="http://www.w3.org/2000/svg">
<path d="M5.5 6.5C5.5 6.36739 5.55268 6.24021 5.64645 6.14645C5.74021 6.05268 5.86739 6 6 6H10C10.1326 6 10.2598 6.05268 10.3536 6.14645C10.4473 6.24021 10.5 6.36739 10.5 6.5C10.5 6.63261 10.4473 6.75979 10.3536 6.85355C10.2598 6.94732 10.1326 7 10 7H6C5.86739 7 5.74021 6.94732 5.64645 6.85355C5.55268 6.75979 5.5 6.63261 5.5 6.5ZM6 9H10C10.1326 9 10.2598 8.94732 10.3536 8.85355C10.4473 8.75979 10.5 8.63261 10.5 8.5C10.5 8.36739 10.4473 8.24021 10.3536 8.14645C10.2598 8.05268 10.1326 8 10 8H6C5.86739 8 5.74021 8.05268 5.64645 8.14645C5.55268 8.24021 5.5 8.36739 5.5 8.5C5.5 8.63261 5.55268 8.75979 5.64645 8.85355C5.74021 8.94732 5.86739 9 6 9ZM8 10H6C5.86739 10 5.74021 10.0527 5.64645 10.1464C5.55268 10.2402 5.5 10.3674 5.5 10.5C5.5 10.6326 5.55268 10.7598 5.64645 10.8536C5.74021 10.9473 5.86739 11 6 11H8C8.13261 11 8.25979 10.9473 8.35355 10.8536C8.44732 10.7598 8.5 10.6326 8.5 10.5C8.5 10.3674 8.44732 10.2402 8.35355 10.1464C8.25979 10.0527 8.13261 10 8 10ZM14 3.5V10.2937C14.0001 10.425 13.9742 10.555 13.9238 10.6763C13.8734 10.7975 13.7994 10.9075 13.7063 11L10.5 14.2063C10.4075 14.2994 10.2975 14.3734 10.1763 14.4238C10.055 14.4742 9.92504 14.5001 9.79375 14.5H3C2.73478 14.5 2.48043 14.3946 2.29289 14.2071C2.10536 14.0196 2 13.7652 2 13.5V3.5C2 3.23478 2.10536 2.98043 2.29289 2.79289C2.48043 2.60536 2.73478 2.5 3 2.5H13C13.2652 2.5 13.5196 2.60536 13.7071 2.79289C13.8946 2.98043 14 3.23478 14 3.5ZM3 13.5H9.5V10.5C9.5 10.3674 9.55268 10.2402 9.64645 10.1464C9.74021 10.0527 9.86739 10 10 10H13V3.5H3V13.5ZM10.5 11V12.7937L12.2937 11H10.5Z" fill="#266FDC"/>
</svg>
