<svg width="21" height="27" viewBox="0 0 21 27" fill="none" xmlns="http://www.w3.org/2000/svg">
<path fill-rule="evenodd" clip-rule="evenodd" d="M20.8752 21.3409C20.8752 25.6846 14.9184 26.1867 10.4389 26.1867L10.1184 26.1865C7.26441 26.1795 0 25.9994 0 21.3146C0 17.0595 5.71742 16.4908 10.1628 16.4694L10.7594 16.469C13.6132 16.4759 20.8752 16.6561 20.8752 21.3409ZM10.4389 18.4455C4.82343 18.4455 1.97682 19.4102 1.97682 21.3146C1.97682 23.236 4.82343 24.2099 10.4389 24.2099C16.0531 24.2099 18.8984 23.2452 18.8984 21.3409C18.8984 19.4194 16.0531 18.4455 10.4389 18.4455ZM10.4389 0C14.2976 0 17.4355 3.13918 17.4355 6.99793C17.4355 10.8567 14.2976 13.9945 10.4389 13.9945H10.3967C6.5459 13.9827 3.42648 10.8422 3.43962 6.99397C3.43962 3.13918 6.57884 0 10.4389 0ZM10.4389 1.88193C7.61733 1.88193 5.32156 4.17635 5.32156 6.99793C5.31236 9.81028 7.59097 12.1034 10.4007 12.1139L10.4389 13.0549V12.1139C13.2592 12.1139 15.5536 9.81818 15.5536 6.99793C15.5536 4.17635 13.2592 1.88193 10.4389 1.88193Z" fill="#B8B9BA"/>
</svg>
