<svg width="16" height="16" viewBox="0 0 16 16" fill="none" xmlns="http://www.w3.org/2000/svg">
<path d="M6 10L10 6" stroke="#266FDC" stroke-linecap="round" stroke-linejoin="round"/>
<path d="M6.33333 6.66667C6.51743 6.66667 6.66667 6.51743 6.66667 6.33333C6.66667 6.14924 6.51743 6 6.33333 6C6.14924 6 6 6.14924 6 6.33333C6 6.51743 6.14924 6.66667 6.33333 6.66667Z" fill="#266FDC" stroke="#266FDC" stroke-linecap="round" stroke-linejoin="round"/>
<path d="M9.66671 9.99967C9.8508 9.99967 10 9.85044 10 9.66634C10 9.48225 9.8508 9.33301 9.66671 9.33301C9.48261 9.33301 9.33337 9.48225 9.33337 9.66634C9.33337 9.85044 9.48261 9.99967 9.66671 9.99967Z" fill="#266FDC" stroke="#266FDC" stroke-linecap="round" stroke-linejoin="round"/>
<path d="M8 14C11.3137 14 14 11.3137 14 8C14 4.68629 11.3137 2 8 2C4.68629 2 2 4.68629 2 8C2 11.3137 4.68629 14 8 14Z" stroke="#266FDC" stroke-linecap="round" stroke-linejoin="round"/>
</svg>
