<svg width="27" height="26" viewBox="0 0 27 26" fill="none" xmlns="http://www.w3.org/2000/svg">
<path fill-rule="evenodd" clip-rule="evenodd" d="M25.369 16.7634C25.9126 16.8042 26.3193 17.2794 26.2785 17.8231L26.0284 21.1257C25.8218 23.8505 23.5222 25.9842 20.7908 25.9842H5.52155C2.7902 25.9842 0.490591 23.8505 0.283929 21.1257L0.0338293 17.8231C-0.00697647 17.2794 0.401082 16.8042 0.94472 16.7634C1.49099 16.7437 1.96223 17.1294 2.00435 17.6743L2.25314 20.9756C2.38214 22.6763 3.81692 24.0097 5.52155 24.0097H20.7908C22.4955 24.0097 23.9316 22.6763 24.0592 20.9756L24.3093 17.6743C24.3515 17.1294 24.8345 16.7424 25.369 16.7634ZM14.8545 0C16.8328 0 18.4718 1.48252 18.7187 3.39481L21.3112 3.39596C24.0702 3.39596 26.3132 5.64555 26.3132 8.41245V12.9393C26.3132 13.2907 26.1262 13.6145 25.8248 13.7909C22.5757 15.6936 18.4599 16.8035 14.1432 16.9515L14.1437 19.319C14.1437 19.864 13.7014 20.3063 13.1565 20.3063C12.6115 20.3063 12.1692 19.864 12.1692 19.319L12.1684 16.9518C7.85601 16.8051 3.73986 15.6951 0.488353 13.7909C0.185601 13.6145 0 13.2907 0 12.9393V8.39928C0 5.64028 2.24958 3.39596 5.01517 3.39596L7.59424 3.39481C7.84109 1.48252 9.48006 0 11.4584 0H14.8545ZM21.3112 5.37044H5.01517C3.33818 5.37044 1.97447 6.72888 1.97447 8.39928V12.364C5.09903 14.0618 9.03813 14.9922 13.1381 14.994L13.1565 14.9923L13.1711 14.9928L13.7978 14.9863C17.6754 14.8939 21.3745 13.974 24.3387 12.364V8.41245C24.3387 6.73414 22.9816 5.37044 21.3112 5.37044ZM14.8545 1.97447H11.4584C10.5721 1.97447 9.82388 2.57771 9.60286 3.39515H16.71C16.489 2.57771 15.7408 1.97447 14.8545 1.97447Z" fill="#B8B9BA"/>
</svg>
